<?xml version="1.0" encoding="utf-8"?>
<!-- Generator: Adobe Illustrator 26.1.0, SVG Export Plug-In . SVG Version: 6.00 Build 0)  -->
<svg version="1.1" id="Isolation_Mode" xmlns="http://www.w3.org/2000/svg" xmlns:xlink="http://www.w3.org/1999/xlink" x="0px"
	 y="0px" viewBox="0 0 500 500" style="enable-background:new 0 0 500 500;" xml:space="preserve">
<style type="text/css">
	.st0{fill:#8DCB04;}
	.st1{fill:none;}
	.st2{fill:#70AA00;}
	.st3{fill:#FFFFFF;}
</style>
<path class="st0" d="M400,500H100C44.8,500,0,455.2,0,400V100C0,44.8,44.8,0,100,0h300c55.2,0,100,44.8,100,100v300
	C500,455.2,455.2,500,400,500z"/>
<g>
	<path class="st1" d="M207-0.6c0,0.2-0.1,0.4-0.1,0.6h1.3C207.8-0.2,207.4-0.4,207-0.6z"/>
	<path class="st1" d="M254.6,502.2c0.4,0.4,1,0.4,1.3,0l2.2-2.2h-5.8L254.6,502.2z"/>
	<path class="st1" d="M500,362.6v10.1C502.3,369.7,502.3,365.5,500,362.6z"/>
	<path class="st2" d="M466.5,312.9c-1.6-1.6-4.3-1.6-5.9,0s-1.6,4.3,0,5.9s4.3,1.6,5.9,0S468.1,314.6,466.5,312.9z M465.1,317.5
		c-0.9,0.9-2.3,0.9-3.2,0s-0.9-2.3,0-3.2s2.3-0.9,3.2,0S466,316.6,465.1,317.5z"/>
	<path class="st2" d="M452.7,320.7c-1.6,1.6-1.6,4.3,0,5.9s4.3,1.6,5.9,0c1.6-1.6,1.6-4.3,0-5.9S454.4,319.1,452.7,320.7z
		 M457.3,325.3c-0.9,0.9-2.3,0.9-3.2,0s-0.9-2.3,0-3.2s2.3-0.9,3.2,0S458.1,324.4,457.3,325.3z"/>
	<path class="st2" d="M444.4,329.1c-1.6,1.6-1.6,4.3,0,5.9s4.3,1.6,5.9,0c1.6-1.6,1.6-4.3,0-5.9C448.7,327.4,446,327.4,444.4,329.1z
		 M449,333.6c-0.9,0.9-2.3,0.9-3.2,0c-0.9-0.9-0.9-2.3,0-3.2c0.9-0.9,2.3-0.9,3.2,0C449.8,331.3,449.8,332.7,449,333.6z"/>
	<path class="st2" d="M459.4,413.4c-3.3,3.3-8.5,3.3-11.8,0l-19.7-19.7c-3.3-3.3-3.3-8.5,0-11.8l39.9-39.9c3.3-3.3,8.5-3.3,11.8,0
		l19.7,19.7c0.3,0.3,0.5,0.6,0.7,0.9v-4.3L481.7,340c-4.4-4.4-11.6-4.4-16,0l-39.9,39.9c-4.4,4.4-4.4,11.6,0,16l19.7,19.7
		c4.4,4.4,11.6,4.4,16,0l38.5-38.5v-4.3c-0.2,0.3-0.5,0.6-0.7,0.9L459.4,413.4z"/>
	<path class="st2" d="M470.4,369.1l-22.5,6c-0.5,0.1-0.9,0.5-1,1c-0.1,0.5,0,1,0.4,1.4l16.5,16.5c0.4,0.4,0.9,0.5,1.4,0.4
		c0.3-0.1,0.5-0.2,0.7-0.4c0.2-0.2,0.3-0.4,0.4-0.7l6-22.5c0.1-0.5,0-1-0.4-1.4C471.4,369.2,470.9,369,470.4,369.1z M463.9,390.2
		l-12.9-12.9l17.6-4.7L463.9,390.2z"/>
	<path class="st2" d="M421.2,356.3l-21.5,21.5c-0.4,0.4-0.4,1,0,1.4c0.4,0.4,1,0.4,1.4,0l21.5-21.5c0.4-0.4,0.4-1,0-1.4
		C422.2,355.9,421.6,355.9,421.2,356.3z"/>
	<path class="st2" d="M430.2,489.4c3.1,0.1,6-1.1,8.1-3.3c0.2-0.2,0.5-0.5,0.7-0.7c1.6-1.9,2.5-4.4,2.6-7c0-2.4-0.7-4.7-2.1-6.5
		c-0.6-0.8-1.3-1.6-2.1-2.2c-4.8-3.9-11.6-3.2-15.5,1.5c-1,1.2-1.8,2.7-2.2,4.3c-0.8,3.2-0.2,6.6,1.7,9.3c0.1,0.1,0.1,0.2,0.2,0.3
		C423.7,487.7,426.9,489.3,430.2,489.4z M422.6,476.2c0.3-1.1,0.9-2.2,1.6-3.1c0.2-0.2,0.3-0.4,0.5-0.6c3-3,7.6-3.3,10.9-0.6
		c0.6,0.5,1.1,1,1.5,1.6c0,0,0,0,0,0c1,1.4,1.5,3.1,1.5,4.8c0,1.9-0.7,3.7-1.9,5.1c-1.6,1.9-4,3-6.5,3c-2.5-0.1-4.8-1.3-6.3-3.3
		c0,0-0.1-0.1-0.1-0.1l-0.1-0.1C422.5,481.1,422,478.6,422.6,476.2z"/>
	<path class="st2" d="M429.7,495.3l-0.1,0.3c1.6-0.5,3.1-1,4.6-1.6c-1.1,0.2-2.1,0.4-3.2,0.4C430.4,494.4,429.9,494.8,429.7,495.3z"
		/>
	<path class="st2" d="M449.6,436.4L427.3,414c0,0,0,0,0,0s0,0,0,0l-24.8-24.8l72.6-72.6l24.9,24.9v-4.2l-10.5-10.5l10.5-10.5v-4.2
		l-12.6,12.6l-11.2-11.2l-6.8-6.8c-2.5-2.5-6.5-2.5-9,0l-67.8,67.8c-2.5,2.5-2.5,6.5,0,9l6.8,6.8l24.8,24.8l-21.5,21.5
		c-4.4,4.4-4.4,11.6,0,16l9,9l-1.8,1.7c-0.6,0.5-0.6,1.3-0.2,1.9l3.7,5c-0.6,1.3-1.1,2.6-1.4,4c-0.1,0.4-0.2,0.8-0.2,1.3l-5.9,2.1
		c-0.7,0.2-1.1,1-0.9,1.7l2.2,9.5c0.2,0.7,0.9,1.2,1.6,1.1l6.2-0.7c0.5,0.8,1.1,1.5,1.7,2.1c0.6,0.7,1.3,1.3,2,1.9l-1,5.3
		c1-0.2,2.1-0.4,3.1-0.6l0.9-5.1c0.1-0.6-0.1-1.1-0.6-1.5c-0.8-0.6-1.6-1.3-2.3-2.1c-0.7-0.8-1.3-1.6-1.9-2.5
		c-0.3-0.5-0.8-0.7-1.4-0.7l-5.8,0.6l-1.6-6.9l5.5-1.9c0.5-0.2,0.9-0.7,1-1.2c0.1-0.7,0.2-1.3,0.3-1.9c0.3-1.4,0.8-2.8,1.5-4.1
		c0.3-0.5,0.2-1.1-0.1-1.6l-3.4-4.7l5.2-4.8l4.4,3.8c0.4,0.4,1,0.5,1.6,0.2c1.9-0.8,3.9-1.3,6.1-1.4c0.6,0,1.1-0.4,1.3-0.9l2.4-5.3
		l6.8,2.1l-1.1,5.7c-0.1,0.6,0.1,1.1,0.6,1.5c0.4,0.3,0.7,0.5,1.1,0.9c0.4,0.4,0.8,0.8,1.2,1.2c0.7,0.8,1.3,1.6,1.9,2.5
		c0.3,0.5,0.8,0.7,1.4,0.7l5.8-0.6l1.6,6.9l-5.5,1.9c-0.5,0.2-0.9,0.7-1,1.2c-0.2,2.1-0.8,4.1-1.8,5.9c-0.3,0.5-0.2,1.1,0.1,1.6
		l1,1.4c0.9-0.5,1.8-0.9,2.6-1.4l-0.7-1c0.8-1.7,1.3-3.4,1.6-5.3l5.9-2.1c0.7-0.2,1.1-1,0.9-1.7L454,468c-0.2-0.7-0.9-1.2-1.6-1.1
		l-6.2,0.7c-0.5-0.8-1.1-1.5-1.7-2.1c-0.5-0.5-1-1-1.5-1.4c-0.2-0.2-0.4-0.3-0.6-0.5l1.1-6.1c0.1-0.7-0.3-1.5-1-1.7l-9.3-2.9
		c-0.7-0.2-1.5,0.1-1.8,0.8l-2.5,5.7c-1.8,0.1-3.6,0.6-5.4,1.2l-4.7-4c-0.6-0.5-1.4-0.5-2,0l-3.2,3l-9-9c-3.3-3.3-3.3-8.5,0-11.8
		l21.5-21.5l21.3,21.3c2.5,2.5,6.5,2.5,9,0L500,395v-4.2l-45.5,45.5C453.2,437.7,451,437.7,449.6,436.4z M394.7,381.4
		c-1.3-1.3-1.3-3.5,0-4.9l67.8-67.8c1.3-1.3,3.5-1.3,4.9,0l5.7,5.7l-72.6,72.6L394.7,381.4z"/>
	<path class="st2" d="M228.9,0h-20.7c4,1.9,7.8,2.9,11.3,3c0,0,0,0,0,0c-0.2,0.1-0.5,0.2-0.7,0.3c-0.2,0.1-0.4,0.2-0.6,0.3
		c-0.2,0.1-0.5,0.2-0.7,0.3c-0.2,0.1-0.4,0.2-0.6,0.2c-0.3,0.1-0.5,0.2-0.8,0.3c-0.2,0.1-0.4,0.1-0.7,0.2c-0.3,0.1-0.5,0.2-0.8,0.2
		c-0.2,0.1-0.4,0.1-0.7,0.2c-0.3,0.1-0.5,0.1-0.8,0.2c-0.2,0-0.4,0.1-0.7,0.1c-0.3,0.1-0.5,0.1-0.8,0.1c-0.2,0-0.4,0.1-0.7,0.1
		c-0.3,0-0.5,0.1-0.8,0.1c-0.2,0-0.4,0.1-0.7,0.1c-0.3,0-0.6,0-0.8,0.1c-0.2,0-0.4,0-0.7,0c-0.3,0-0.6,0-0.9,0c-0.2,0-0.4,0-0.6,0
		c0,0-0.1,0-0.1,0c0-2,0.2-4,0.5-5.9h-3c-0.3,1.9-0.5,3.8-0.5,5.7c-5.1-0.6-10-2.6-14.1-5.7h-4.5c5.4,5.2,12.5,8.3,20,8.8
		C213.7,9.3,222.4,6.1,228.9,0z"/>
	<path class="st2" d="M45.8,36.7l24.8,24.8L49.1,83c-4.4,4.4-4.4,11.6,0,16l9,9l-1.8,1.7c-0.6,0.5-0.6,1.3-0.2,1.9l3.7,5
		c-0.6,1.3-1.1,2.6-1.4,4c-0.1,0.4-0.2,0.8-0.2,1.3l-5.9,2.1c-0.7,0.2-1.1,1-0.9,1.7l2.2,9.5c0.2,0.7,0.9,1.2,1.6,1.1l6.2-0.7
		c0.5,0.8,1.1,1.5,1.7,2.1c0.6,0.7,1.3,1.3,2,1.9l-1.1,6.1c-0.1,0.7,0.3,1.5,1,1.7l9.3,2.9c0.7,0.2,1.5-0.1,1.8-0.8l2.5-5.7
		c1.8-0.1,3.6-0.6,5.4-1.2l4.7,4.1c0.6,0.5,1.4,0.5,2,0l7.1-6.6c0,0,0,0,0,0c0.5-0.5,0.6-1.3,0.1-1.9l-3.7-5
		c0.8-1.7,1.3-3.4,1.6-5.3l5.9-2.1c0.7-0.2,1.1-1,0.9-1.7l-2.2-9.5c-0.2-0.7-0.9-1.2-1.6-1.1l-6.2,0.7c-0.5-0.8-1.1-1.5-1.7-2.1
		c-0.5-0.5-1-1-1.5-1.4c-0.2-0.2-0.4-0.3-0.6-0.5l1.1-6.1c0.1-0.7-0.3-1.5-1-1.7l-9.3-2.9C79,99,78.3,99.4,78,100l-2.5,5.7
		c-1.8,0.1-3.6,0.6-5.4,1.2l-4.7-4c-0.6-0.5-1.4-0.5-2,0l-3.2,3l-9-9c-3.3-3.3-3.3-8.5,0-11.8l21.5-21.5L94,84.9
		c2.5,2.5,6.5,2.5,9,0l67.8-67.8c2.5-2.5,2.5-6.5,0-9L162.7,0h-4.2l10.2,10.2c1.3,1.3,1.3,3.5,0,4.9l-67.8,67.8
		c-1.3,1.3-3.5,1.3-4.9,0L73.7,60.5c0,0,0,0,0,0s0,0,0,0L48.9,35.7L83.2,1.4c-1.7,0.3-3.5,0.6-5.2,1L45.8,34.6
		C45.2,35.2,45.2,36.2,45.8,36.7z M64.4,106l4.4,3.8c0.4,0.4,1,0.5,1.6,0.2c1.9-0.8,3.9-1.3,6.1-1.4c0.6,0,1.1-0.4,1.3-0.9l2.4-5.3
		l6.8,2.1l-1.1,5.7c-0.1,0.6,0.1,1.1,0.6,1.5c0.4,0.3,0.7,0.5,1.1,0.9c0.4,0.4,0.8,0.8,1.2,1.2c0.7,0.8,1.3,1.6,1.9,2.5
		c0.3,0.5,0.8,0.7,1.4,0.7l5.8-0.6l1.6,6.9l-5.5,1.9c-0.5,0.2-0.9,0.7-1,1.2c-0.2,2.1-0.8,4.1-1.8,5.9c-0.3,0.5-0.2,1.1,0.1,1.6
		l3.4,4.7l-5.2,4.8l-4.4-3.8c-0.4-0.4-1-0.5-1.6-0.2c-1.9,0.8-4,1.3-6.1,1.4c-0.6,0-1.1,0.4-1.3,0.9l-2.4,5.3L67,145l1.1-5.7
		c0.1-0.6-0.1-1.1-0.6-1.5c-0.8-0.6-1.6-1.3-2.3-2.1c-0.7-0.8-1.3-1.6-1.9-2.5c-0.3-0.5-0.8-0.7-1.4-0.7l-5.8,0.6l-1.6-6.9l5.5-1.9
		c0.5-0.2,0.9-0.7,1-1.2c0.1-0.7,0.2-1.3,0.3-1.9c0.3-1.4,0.8-2.8,1.5-4.1c0.3-0.5,0.2-1.1-0.1-1.6l-3.4-4.7L64.4,106z"/>
	<path class="st2" d="M98.6,0L98.6,0c0.5,0,0.9,0,1.4,0H98.6z"/>
	<path class="st2" d="M72.3,42.2L92,61.9c4.4,4.4,11.6,4.4,16,0L147.8,22c4.4-4.4,4.4-11.6,0-16L141.7,0h-4.2l8.2,8.2
		c3.3,3.3,3.3,8.5,0,11.8l-39.9,39.9c-3.3,3.3-8.5,3.3-11.8,0L74.4,40.1c-3.3-3.3-3.3-8.5,0-11.8L102.7,0H100c-0.5,0-1,0-1.4,0
		L72.3,26.3C67.9,30.7,67.9,37.8,72.3,42.2z"/>
	<path class="st2" d="M110.1,40.6c0.4,0.4,0.9,0.5,1.4,0.4c0.3-0.1,0.5-0.2,0.7-0.4c0.2-0.2,0.3-0.4,0.4-0.7l6-22.5
		c0.1-0.5,0-1-0.4-1.4c-0.4-0.4-0.9-0.5-1.4-0.4l-22.5,6c-0.5,0.1-0.9,0.5-1,1c-0.1,0.5,0,1,0.4,1.4L110.1,40.6z M115.1,19.1
		l-4.7,17.6L97.5,23.8L115.1,19.1z"/>
	<path class="st2" d="M68.1,131.4c2.1,2.7,5.2,4.3,8.6,4.4c3.1,0.1,6-1.1,8.1-3.3c0.2-0.2,0.5-0.5,0.7-0.7c1.6-1.9,2.5-4.4,2.6-7
		c0-2.4-0.7-4.7-2.1-6.5c-0.6-0.8-1.3-1.6-2.1-2.2c-4.8-3.9-11.6-3.2-15.5,1.5c-1,1.2-1.8,2.7-2.2,4.3c-0.8,3.2-0.2,6.6,1.7,9.3
		C68,131.3,68,131.4,68.1,131.4z M69.1,122.7c0.3-1.1,0.9-2.2,1.6-3.1c0.2-0.2,0.3-0.4,0.5-0.6c3-3,7.6-3.3,10.9-0.6
		c0.6,0.5,1.1,1,1.5,1.6c0,0,0,0,0,0c1,1.4,1.5,3.1,1.5,4.8c0,1.9-0.7,3.7-1.9,5.1c-1.6,1.9-4,3-6.5,3c-2.5-0.1-4.8-1.3-6.3-3.3
		c0,0-0.1-0.1-0.1-0.1l-0.1-0.1C68.9,127.5,68.5,125,69.1,122.7z"/>
	<path class="st2" d="M471.6,98.7l-21.5,21.5c-4.7,4.7-4.7,12.5,0,17.2l20.2,20.2c-1.8,2.8-1.4,6.5,1,8.9c1.3,1.3,3,2,4.7,2.1
		c-4.1,7.4-3,17,3.2,23.2c2.8,2.8,6.3,4.6,10.1,5.4l-0.1,0.1c-2.3,2.3-2.3,6.2,0,8.5l0.3,0.3c2.1,2.1,5.4,2.3,7.7,0.7
		c0.9,0.3,1.9,0.7,2.8,1.1v-3.5c-0.1,0-0.1,0-0.2-0.1l0.2-0.2v-4.5l-4.2,4.2c-1.1,1.1-2.9,1.1-4,0l-0.3-0.3c-1.1-1.1-1.1-2.9,0-4
		l8.6-8.6v-4.5l-7.8,7.8c-4-0.2-7.8-1.9-10.7-4.8c-6.4-6.4-6.4-16.7,0-23.1c5-5,12.5-6.1,18.5-3.2v-3.5c-5.3-2-11.4-1.7-16.5,1.2
		c-0.1-1.7-0.8-3.4-2.1-4.7c-2.4-2.4-6.1-2.7-8.9-1l-20.2-20.2c-3.5-3.5-3.5-9.2,0-12.7l21.4-21.4c5.6,5.5,13,8.8,20.9,9.4
		c1.8,0.1,3.6,0.4,5.4,0.9v-3.3c-1.7-0.4-3.4-0.7-5.2-0.8c-7.2-0.5-14-3.6-19.2-8.8c-11.8-11.8-11.8-31,0-42.8c3-3,6.6-5.3,10.3-6.8
		c-0.6-0.9-1.1-1.8-1.7-2.7c-4,1.6-7.7,4-10.9,7.3C461,65.8,460.4,85.6,471.6,98.7z M473.5,158.6c1.6-1.6,4.1-1.6,5.7,0
		c1.6,1.6,1.6,4.1,0,5.7c-1.6,1.6-4.1,1.6-5.7,0C472,162.7,472,160.2,473.5,158.6z"/>
	<path class="st2" d="M496.3,90c-0.6,0.6-0.6,1.6,0,2.2c0,0,0.1,0,0.1,0.1c0.1,0.1,0.2,0.2,0.3,0.3l3.2,2.3c-0.1-2-0.3-3.9-0.5-5.8
		C498.4,88.9,497.3,89,496.3,90z"/>
	<path class="st2" d="M467.1,49.4c0.6,0.6,1.6,0.6,2.2,0c0.6-0.6,0.6-1.6,0-2.2l-11.2-11.2c-0.6-0.6-1.6-0.6-2.2,0
		c-0.6,0.6-0.6,1.6,0,2.2L467.1,49.4z"/>
	<path class="st2" d="M444.6,60.4l12.9,2.8c0.5,0.1,1.1-0.1,1.5-0.4c0.2-0.2,0.4-0.5,0.4-0.8c0.2-0.9-0.4-1.7-1.2-1.9l-12.9-2.8
		c-0.9-0.2-1.7,0.4-1.9,1.2C443.2,59.3,443.7,60.2,444.6,60.4z"/>
	<path class="st2" d="M491.3,166.9c0,0.9,0.7,1.6,1.5,1.6c2.8,0.1,5.3,1,7.2,2.6v-3.9c-2.1-1.2-4.5-1.9-7.1-1.9
		C492,165.4,491.3,166.1,491.3,166.9z"/>
	<path class="st2" d="M161.5,413.2c0,0,0.1-0.1,0.1-0.2c0.5-0.7,0.4-1.7-0.3-2.2c-6.4-4.9-14.4-7.1-22.6-6.3
		c-0.9,0.1-1.5,0.9-1.4,1.7s0.9,1.5,1.7,1.4c7.4-0.8,14.7,1.2,20.4,5.6C160.1,413.8,161,413.8,161.5,413.2z"/>
	<path class="st2" d="M104.6,389.5c-0.6-0.6-1.6-0.6-2.2,0s-0.6,1.6,0,2.2l11.2,11.2c0.6,0.6,1.6,0.6,2.2,0s0.6-1.6,0-2.2
		L104.6,389.5z"/>
	<path class="st2" d="M104.6,413.6l-12.9-2.8c-0.9-0.2-1.7,0.4-1.9,1.2c-0.2,0.9,0.4,1.7,1.2,1.9l12.9,2.8c0.5,0.1,1.1-0.1,1.5-0.4
		c0.2-0.2,0.4-0.5,0.4-0.8C106,414.6,105.5,413.8,104.6,413.6z"/>
	<path class="st2" d="M125.4,377.2c-0.2-0.8-1.1-1.3-2-1.1c-0.8,0.2-1.3,1.1-1.1,2l4,14c0.2,0.8,1.1,1.3,2,1.1
		c0.3-0.1,0.5-0.2,0.7-0.4c0.4-0.4,0.6-1,0.4-1.6L125.4,377.2z"/>
	<path class="st2" d="M291,485.3l-9.9-9.9c-0.2-0.2-0.3-0.5-0.3-0.8c1-8.4-2.1-17.1-8.3-23.3c-10.8-10.8-27.8-11.4-37.9-1.3
		c-0.2,0.2-0.4,0.5-0.6,0.7L220,436.9c-4.7-4.7-12.5-4.7-17.2,0l-10.7,10.7c-1-0.6-2.2-1-3.5-1c-1.1,0-2.2,0.3-3.2,0.8
		c-5.1-5.3-8.2-12.1-8.7-19.1c-0.6-8-4-15.5-9.7-21.2c-13-13-34.3-13-47.3,0c-12.4,12.4-13,32.2-1.8,45.3l-21.5,21.5
		c-4.7,4.7-4.7,12.5,0,17.2l9,9h4.5l-11.3-11.3c-3.5-3.5-3.5-9.2,0-12.7l21.4-21.4c5.6,5.5,13,8.8,20.9,9.4
		c7.1,0.5,13.9,3.6,19.1,8.7c-1.4,2.5-1,5.8,1.2,7.9c1.3,1.3,3,2,4.7,2c0.2,0,0.4,0,0.6,0c-0.2,1.9,0.5,3.9,1.9,5.3
		c1.3,1.3,2.9,2,4.7,2c1.7,0,3.4-0.7,4.6-1.9c1.2,1.1,2.8,1.7,4.4,1.7c1.8,0,3.5-0.7,4.7-2l0.2-0.2c1,0.6,2.2,1,3.5,1
		c1.8,0,3.5-0.7,4.7-2l3.7-3.7c2.2-2.2,2.6-5.6,1-8.2l0.2-0.2c2.5-2.5,2.6-6.5,0.3-9.2c2.5-2.6,2.5-6.8-0.1-9.4c-1.3-1.3-3-2-4.7-2
		c-0.2,0-0.4,0-0.6,0c0.1-1.4-0.2-2.8-1-4l10.7-10.7c3.5-3.5,9.2-3.5,12.7,0l14.1,14.1c-6.4,9-6.2,21.5,0.9,31.2
		c1.8,2.4,3.1,4.9,4.1,7.4l2.8,6.9c0.2,0.6,0.6,1,1.1,1.4h3.4c0.2-0.1,0.3-0.2,0.5-0.4l1.5-1.5l1.8,1.8h4.5l-5.2-5.2
		c-0.6-0.6-1.6-0.6-2.2,0l-2.4,2.4l-2.7-6.7c-1.1-2.7-2.6-5.4-4.5-8c-7-9.7-6.4-22.4,1.5-30.2c8.9-8.9,23.9-8.3,33.4,1.3
		c5.5,5.5,8.3,13.3,7.4,20.7c-0.2,1.3,0.3,2.5,1.2,3.4l9.9,9.9c0.2,0.2,0.2,0.5,0,0.7L277,500h4.5l9.4-9.4
		C292.4,489.1,292.4,486.8,291,485.3z M141.3,460.8c-7.2-0.5-14-3.6-19.2-8.8c-11.8-11.8-11.8-31,0-42.8s31-11.8,42.8,0
		c5.1,5.1,8.3,11.9,8.8,19.2c0.6,7.8,3.9,15.2,9.4,21l-5.8,5.8l-18.4-24.9c-0.1-0.1-0.2-0.2-0.3-0.3c0,0,0,0-0.1-0.1
		c-0.6-0.6-1.6-0.6-2.2,0c-1.5,1.5-0.9,3.6-0.4,5c0.2,0.5,0.5,1.5,0.4,1.8c-0.3,0.1-1.3-0.2-1.8-0.4c-1.5-0.5-3.5-1.2-5,0.4
		c-1.5,1.5-0.9,3.6-0.4,5c0.2,0.5,0.5,1.5,0.4,1.8c-0.3,0.1-1.3-0.2-1.8-0.4c-1.5-0.5-3.5-1.2-5,0.4c-0.6,0.6-0.6,1.6,0,2.2
		c0,0,0.1,0,0.1,0.1c0.1,0.1,0.2,0.2,0.3,0.3l24.9,18.4l-5.8,5.8C156.4,464.7,149,461.4,141.3,460.8z M152.2,440.7
		c-0.2-0.5-0.5-1.5-0.4-1.8c0.3-0.1,1.3,0.2,1.8,0.4c1.5,0.5,3.5,1.2,5-0.4c0.8-0.8,1-1.6,1-2.5l15.5,21l-4.8,4.8l-21-15.5
		c0.9,0,1.7-0.2,2.5-1C153.4,444.2,152.7,442.2,152.2,440.7z M166.1,479.4c-0.9,0-1.8-0.4-2.5-1c-1.4-1.4-1.4-3.6,0-5l11.3-11.3
		l11.3-11.3c0.7-0.7,1.6-1,2.5-1c0.9,0,1.8,0.4,2.5,1c1.4,1.4,1.4,3.6,0,5l-22.6,22.6C167.9,479,167.1,479.4,166.1,479.4z
		 M197,480.5l-3.7,3.7c-0.7,0.7-1.6,1-2.5,1c-0.4,0-0.8-0.1-1.1-0.2l8.2-8.2C198.3,478.1,198,479.5,197,480.5z M198.2,472l-1.2,1.2
		l-10.9,10.9l-1.2,1.2c-0.7,0.7-1.6,1-2.5,1c-0.4,0-0.9-0.1-1.3-0.2l17.9-17.9C199.5,469.5,199.3,471,198.2,472z M195.9,457
		c0.9,0,1.8,0.4,2.5,1c1.4,1.4,1.4,3.6,0,5l-22.6,22.6c-0.7,0.7-1.6,1-2.5,1c-0.9,0-1.8-0.4-2.5-1c-1.4-1.4-1.4-3.6,0-5l22.6-22.6
		C194.1,457.3,195,457,195.9,457z"/>
	<path class="st2" d="M260.2,498l-2,2h4.8h0.1h4.8l-2-2C264.4,496.4,261.8,496.4,260.2,498z"/>
	<path class="st2" d="M269.1,456.9c-5.9-5.9-14.2-8-21.7-5.7c-0.8,0.3-1.3,1.2-1,2c0.3,0.8,1.2,1.3,2,1c6.3-2,13.5-0.1,18.5,4.9
		c0.2,0.2,0.5,0.5,0.7,0.7c0.6,0.7,1.6,0.7,2.2,0.1c0,0,0,0,0.1-0.1c0.6-0.6,0.6-1.6,0.1-2.2C269.6,457.5,269.3,457.2,269.1,456.9z"
		/>
	<path class="st2" d="M283.9,153.6l-1.3,1.3c-2.9,2.9-2.9,7.6,0,10.5l20.2,20.2c2.9,2.9,7.6,2.9,10.5,0l9.8-9.8
		c2.9-2.9,2.9-7.6,0-10.5l-20.2-20.2c-2.9-2.9-7.6-2.9-10.5,0l-1.3,1.3l-5.5-5.5l1.3-1.3c2.9-2.9,2.9-7.6,0-10.5l-20.2-20.2
		c-2.9-2.9-7.6-2.9-10.5,0l-9.8,9.8c-2.9,2.9-2.9,7.6,0,10.5l20.2,20.2c2.9,2.9,7.6,2.9,10.5,0l1.3-1.3l1.7,1.7l-35.9,35.9
		c-3.4,3.4-8.9,3.4-12.2,0l-21.5-21.5c0.9-0.8,1.8-1.6,2.6-2.4c1.1-1.1,2.1-2.2,3.1-3.4c1-1.3,2-2.6,2.8-4c1.6-2.5,2.8-5.1,3.9-7.8
		c0,0,0,0,0,0c1.2-3.3,2-6.7,2.4-10.1c1.4-12.8-3-25.4-12.1-34.4c-1.3-1.3-2.6-2.4-4-3.5c-9.7-7.5-22.2-10.5-34.5-8
		c-8.1,1.7-15.5,5.6-21.4,11.5c-3.8,3.8-6.8,8.2-8.9,13.1c-6.7,15.6-3.6,33.3,7.8,45.6l-27.7,27.7c-4.6,4.6-4.6,12,0,16.6l21.5,21.5
		c-1.3,2.1-1,4.8,0.7,6.6l1,1c-13,16.4-13,39.5,0,56l-1,1c-1,1-1.6,2.4-1.6,3.8c0,1.4,0.6,2.8,1.6,3.8c2.1,2.1,5.5,2.1,7.6,0l1-1
		c16.4,13,39.5,13,56,0l1,1c1,1,2.4,1.6,3.8,1.6c1.4,0,2.8-0.6,3.8-1.6c2.1-2.1,2.1-5.5,0-7.6l-1-1c13-16.4,13-39.5,0-56l1-1
		c1-1,1.6-2.4,1.6-3.8c0-1.4-0.6-2.8-1.6-3.8c-2.1-2.1-5.5-2.1-7.6,0l-1,1c-16.4-13-39.5-13-56,0l-1-1c-1-1-2.4-1.6-3.8-1.6
		c-0.8,0-1.5,0.2-2.2,0.5l-21.6-21.6c-3.4-3.4-3.4-8.9,0-12.2l27.7-27.7c0.2,0.2,0.3,0.3,0.5,0.5c3.9,3.5,8.2,6.2,13.1,8
		c5.5,2.1,11.6,3.1,17.5,2.7c8.2-0.4,16-3.3,22.5-8l21.7,21.7c4.6,4.6,12,4.6,16.6,0l35.9-35.9L283.9,153.6z M149.9,236.2l1.9,1.9
		c-10.7,14.1-10.7,33.7,0,47.8l-1.9,1.9C138.1,272.7,138.1,251.5,149.9,236.2z M162,233.3l-0.5-0.5c12.8-9.6,30.6-9.6,43.5,0
		l-0.5,0.5c-2.1,2.1-2.1,5.5,0,7.6c2.1,2.1,5.5,2.1,7.6,0l0.5-0.5c9.6,12.8,9.6,30.6,0,43.5l-0.5-0.5c-2.1-2.1-5.5-2.1-7.6,0
		c-2.1,2.1-2.1,5.5,0,7.6l0.5,0.5c-12.8,9.6-30.6,9.6-43.5,0l0.5-0.5c2.1-2.1,2.1-5.5,0-7.6c-2.1-2.1-5.5-2.1-7.6,0l-0.5,0.5
		c-9.6-12.8-9.6-30.6,0-43.5l0.5,0.5c2.1,2.1,5.5,2.1,7.6,0C164.1,238.7,164.1,235.3,162,233.3z M154.1,294.5l-2,2
		c-0.9,0.9-2.4,0.9-3.2,0c-0.4-0.4-0.7-1-0.7-1.6c0-0.6,0.2-1.2,0.7-1.6l2-2l4.1-4.1l1.7-1.7c0.9-0.9,2.3-0.9,3.2,0
		c0.9,0.9,0.9,2.3,0,3.2l-1.7,1.7L154.1,294.5z M157.5,295.4l1.9-1.9c14.1,10.7,33.7,10.7,47.8,0l1.9,1.9
		C193.9,307.2,172.7,307.2,157.5,295.4z M217.7,296.5c-0.4,0.4-1,0.7-1.6,0.7c-0.6,0-1.2-0.2-1.6-0.7l-6-6c0,0,0,0,0,0l-1.7-1.7
		c-0.9-0.9-0.9-2.3,0-3.2c0.9-0.9,2.4-0.9,3.2,0l5.8,5.8c0,0,0,0,0,0l2,2C218.6,294.1,218.6,295.6,217.7,296.5z M216.6,287.9
		l-1.9-1.9c10.7-14.1,10.7-33.7,0-47.8l1.9-1.9C228.5,251.5,228.5,272.7,216.6,287.9z M214.4,227.7c0.9-0.9,2.3-0.9,3.2,0
		c0.4,0.4,0.7,1,0.7,1.6c0,0.6-0.2,1.2-0.7,1.6l-2,2c0,0,0,0,0,0l-5.8,5.8c-0.9,0.9-2.4,0.9-3.2,0c-0.9-0.9-0.9-2.4,0-3.2l1.7-1.7
		c0,0,0,0,0,0L214.4,227.7z M209.1,228.7l-1.9,1.9c-14.1-10.7-33.7-10.7-47.8,0l-1.9-1.9C172.7,216.9,193.9,216.9,209.1,228.7z
		 M148.9,227.7c0.4-0.4,1-0.7,1.6-0.7c0.6,0,1.2,0.2,1.6,0.7l2,2l4.1,4.1l1.7,1.7c0.9,0.9,0.9,2.4,0,3.2c-0.9,0.9-2.3,0.9-3.2,0
		l-1.7-1.7l-4.1-4.1l-2-2C148,230,148,228.5,148.9,227.7z M176.1,93.3c0.3,0,0.5-0.1,0.8-0.1c0.4-0.1,0.8-0.1,1.2-0.2
		c0.4-0.1,0.8-0.1,1.2-0.1c0.4,0,0.8-0.1,1.2-0.1c0.4,0,0.8,0,1.2-0.1c0.4,0,0.8,0,1.2,0c0.4,0,0.8,0,1.2,0c0.4,0,0.8,0,1.2,0
		c0.4,0,0.8,0.1,1.2,0.1c0.4,0,0.8,0.1,1.2,0.1c0.4,0,0.8,0.1,1.2,0.2c0.4,0.1,0.8,0.1,1.2,0.2c0.4,0.1,0.8,0.2,1.2,0.2
		c0.4,0.1,0.8,0.2,1.2,0.2c0.4,0.1,0.8,0.2,1.2,0.3c0.4,0.1,0.8,0.2,1.1,0.3c0.4,0.1,0.8,0.3,1.2,0.4c0.4,0.1,0.7,0.2,1.1,0.4
		c0.4,0.1,0.8,0.3,1.1,0.5c0.4,0.1,0.7,0.3,1.1,0.4c0.4,0.2,0.8,0.4,1.1,0.5c0.3,0.2,0.7,0.3,1,0.5c0.4,0.2,0.7,0.4,1.1,0.6
		c0.3,0.2,0.6,0.4,1,0.5c0.4,0.2,0.8,0.5,1.1,0.7c0.3,0.2,0.6,0.4,0.9,0.6c0.4,0.3,0.8,0.6,1.1,0.8c0.3,0.2,0.5,0.4,0.8,0.6
		c0.4,0.3,0.8,0.7,1.2,1c0.2,0.2,0.4,0.4,0.6,0.5c0.6,0.5,1.2,1.1,1.8,1.7c0.5,0.5,1,1,1.5,1.6c0.2,0.2,0.3,0.4,0.5,0.5
		c0.3,0.4,0.6,0.7,0.9,1.1c0.2,0.2,0.4,0.5,0.5,0.7c0.3,0.3,0.5,0.7,0.8,1c0.2,0.3,0.4,0.5,0.5,0.8c0.2,0.3,0.5,0.7,0.7,1
		c0.2,0.3,0.3,0.5,0.5,0.8c0.2,0.3,0.4,0.7,0.6,1c0.2,0.3,0.3,0.6,0.5,0.9c0.2,0.3,0.4,0.7,0.5,1c0.1,0.3,0.3,0.6,0.4,0.9
		c0.2,0.3,0.3,0.7,0.5,1c0.1,0.3,0.2,0.6,0.4,0.9c0.1,0.4,0.3,0.7,0.4,1.1c0.1,0.3,0.2,0.6,0.3,0.9c0.1,0.4,0.2,0.7,0.3,1.1
		c0.1,0.3,0.2,0.6,0.3,1c0.1,0.4,0.2,0.7,0.3,1.1c0.1,0.3,0.2,0.7,0.2,1c0.1,0.4,0.2,0.7,0.2,1.1c0.1,0.3,0.1,0.7,0.2,1
		c0.1,0.4,0.1,0.8,0.2,1.1c0,0.3,0.1,0.7,0.1,1c0,0.4,0.1,0.8,0.1,1.1c0,0.3,0,0.7,0.1,1c0,0.4,0,0.8,0,1.2c0,0.3,0,0.7,0,1
		c0,0.4,0,0.8,0,1.2c0,0.3,0,0.7,0,1c0,0.2,0,0.3,0,0.5c-13.7-0.2-17.9-9.8-20.9-16.9c-0.4-0.8-0.7-1.6-1.1-2.4
		c-1.8-3.5-4-5.7-6.6-6.5c-2.1-0.7-4.4-0.4-6.8,0.9c-2.5,1.3-5.4,1.3-7.8,0c-2.4-1.2-3.9-3.4-4.2-6.1
		C174.4,100.5,174.9,97,176.1,93.3z M168.4,168.2c-0.2-0.1-0.4-0.2-0.6-0.3c-0.3-0.1-0.6-0.2-0.9-0.4c-0.3-0.1-0.6-0.3-1-0.5
		c-0.3-0.1-0.6-0.3-0.8-0.4c-0.3-0.2-0.6-0.3-1-0.5c-0.3-0.1-0.5-0.3-0.8-0.4c-0.3-0.2-0.6-0.4-0.9-0.6c-0.2-0.2-0.5-0.3-0.7-0.5
		c-0.3-0.2-0.6-0.4-0.9-0.7c-0.2-0.2-0.5-0.3-0.7-0.5c-0.3-0.2-0.6-0.5-1-0.7c-0.2-0.2-0.4-0.3-0.6-0.5c-0.3-0.3-0.7-0.6-1-0.9
		c-0.2-0.1-0.3-0.3-0.5-0.4c-0.5-0.4-0.9-0.9-1.4-1.3c0,0,0-0.1-0.1-0.1c0,0-0.1,0-0.1-0.1c-0.7-0.7-1.3-1.4-2-2.1
		c-0.2-0.3-0.4-0.5-0.6-0.8c-0.4-0.5-0.8-1-1.2-1.5c-0.2-0.3-0.4-0.6-0.7-1c-0.3-0.5-0.7-0.9-1-1.4c-0.2-0.4-0.4-0.7-0.6-1.1
		c-0.3-0.5-0.6-0.9-0.8-1.4c-0.2-0.4-0.4-0.8-0.6-1.2c-0.2-0.5-0.5-0.9-0.7-1.4c-0.2-0.4-0.3-0.8-0.5-1.2c-0.2-0.5-0.4-0.9-0.6-1.4
		c-0.2-0.4-0.3-0.9-0.4-1.3c-0.2-0.5-0.3-1-0.4-1.4c-0.1-0.4-0.2-0.9-0.3-1.3c-0.1-0.5-0.2-1-0.3-1.5c-0.1-0.4-0.2-0.9-0.2-1.4
		c-0.1-0.5-0.2-1-0.2-1.5c-0.1-0.5-0.1-0.9-0.1-1.4c0-0.5-0.1-1-0.1-1.5c0-0.5,0-0.9,0-1.4c0-0.5,0-1,0-1.5c0-0.5,0-0.9,0.1-1.4
		c0-0.5,0.1-1,0.1-1.5c0-0.5,0.1-0.9,0.2-1.4c0.1-0.5,0.1-1,0.2-1.5c0.1-0.5,0.2-0.9,0.3-1.4c0.1-0.5,0.2-1,0.3-1.5
		c0.1-0.5,0.3-0.9,0.4-1.4c0.1-0.5,0.3-1,0.4-1.5c0.2-0.5,0.3-0.9,0.5-1.4c0.1-0.3,0.2-0.6,0.4-0.9c6.2,0.5,10.2,3.3,11.8,8.2
		c2.4,7.1,6.3,9,9.1,9.4c3.3,0.5,6.1,2.3,7.4,4.9c1.3,2.5,1.1,5.5-0.5,8.8c-1.4,2.8-1.1,5.6-0.9,8
		C174.2,160.5,174.6,164,168.4,168.2z M183.4,171.1c-3.9,0-7.8-0.5-11.6-1.7c0.6-0.5,1.1-0.9,1.6-1.4c4.2-4.2,3.8-8.2,3.4-11.8
		c-0.3-2.3-0.5-4.3,0.5-6.3c2.7-5.2,1.8-9.2,0.5-11.6c-1.8-3.5-5.4-5.9-9.7-6.5c-2.9-0.4-5.1-2.9-6.6-7.4c-2-5.8-6.6-9.3-13.4-10.1
		c1.9-3.8,4.3-7.2,7.4-10.2c4.8-4.8,10.7-8.3,17.2-10.1c-1,3.5-1.3,6.9-0.9,10c0.5,3.6,2.6,6.7,5.9,8.4c3.3,1.7,7.3,1.7,10.7-0.1
		c1.6-0.9,3.1-1.1,4.4-0.7c1.7,0.6,3.4,2.2,4.8,5c0.3,0.7,0.7,1.5,1,2.3c3,6.9,7.9,18.3,23.4,18.7c-0.3,2.1-0.8,4.3-1.5,6.3
		c-2.9-0.9-9.3-2.5-12-1.1c-3,1.5-3.7,3.6-4.3,5.6c-0.5,1.7-1.1,3.6-3.5,5.7c-1.3,1.2-2.3,1.2-3.9,1.3c-2.2,0.1-5,0.2-9.1,3.1
		C183.7,161.3,182.6,166.7,183.4,171.1z M209.2,161.2c-0.3,0.3-0.6,0.5-0.9,0.8c-0.2,0.2-0.4,0.3-0.6,0.4c-0.3,0.2-0.5,0.4-0.8,0.7
		c-0.2,0.2-0.4,0.3-0.6,0.5c-0.3,0.2-0.5,0.4-0.8,0.6c-0.2,0.2-0.4,0.3-0.7,0.4c-0.3,0.2-0.5,0.4-0.8,0.5c-0.2,0.1-0.5,0.3-0.7,0.4
		c-0.3,0.2-0.5,0.3-0.8,0.5c-0.2,0.1-0.5,0.3-0.7,0.4c-0.3,0.1-0.5,0.3-0.8,0.4c-0.2,0.1-0.5,0.2-0.7,0.4c-0.3,0.1-0.6,0.3-0.8,0.4
		c-0.3,0.1-0.5,0.2-0.8,0.3c-0.3,0.1-0.6,0.2-0.8,0.4c-0.3,0.1-0.5,0.2-0.8,0.3c-0.3,0.1-0.6,0.2-0.9,0.3c-0.3,0.1-0.5,0.2-0.8,0.3
		c-0.3,0.1-0.6,0.2-0.9,0.3c-0.3,0.1-0.5,0.2-0.8,0.2c-0.3,0.1-0.6,0.2-0.9,0.2c-0.3,0.1-0.5,0.1-0.8,0.2c-0.3,0.1-0.6,0.1-0.9,0.2
		c-0.3,0.1-0.6,0.1-0.8,0.2c-0.3,0.1-0.6,0.1-0.9,0.1c-0.3,0-0.6,0.1-0.9,0.1c-0.3,0-0.6,0.1-0.9,0.1c-0.3,0-0.6,0.1-0.9,0.1
		c-0.1,0-0.2,0-0.3,0c-0.7-3.1-0.3-7.6,2.9-9.8c3.4-2.3,5.5-2.4,7.5-2.5c1.8-0.1,3.7-0.2,5.8-2.1c3-2.7,3.8-5.1,4.4-7.1
		c0.5-1.7,0.9-2.8,2.7-3.7c1-0.5,5-0.1,9.6,1.3c0,0.1-0.1,0.2-0.1,0.3c-0.1,0.2-0.2,0.5-0.3,0.7c-0.2,0.4-0.3,0.7-0.5,1.1
		c-0.1,0.3-0.2,0.5-0.4,0.7c-0.2,0.4-0.4,0.7-0.6,1c-0.1,0.2-0.3,0.5-0.4,0.7c-0.2,0.3-0.4,0.7-0.6,1c-0.1,0.2-0.3,0.5-0.5,0.7
		c-0.2,0.3-0.4,0.7-0.7,1c-0.2,0.2-0.3,0.5-0.5,0.7c-0.2,0.3-0.5,0.7-0.7,1c-0.2,0.2-0.3,0.4-0.5,0.6c-0.3,0.4-0.6,0.7-0.9,1
		c-0.1,0.2-0.3,0.3-0.4,0.5c-0.5,0.5-0.9,1-1.4,1.5c-0.4,0.4-0.8,0.8-1.3,1.2C209.5,161,209.3,161.1,209.2,161.2z M294.5,147.3
		c1.7-1.7,4.5-1.7,6.2,0l20.2,20.2c1.7,1.7,1.7,4.5,0,6.2l-9.8,9.8c-1.7,1.7-4.5,1.7-6.2,0l-20.2-20.2c-1.7-1.7-1.7-4.5,0-6.2
		l1.3-1.3l1.3,1.3c-1.5,2.1-1.4,5.1,0.6,7.1l16.3,16.3c2.1,2.1,5.6,2.1,7.7,0l5.9-5.9c2.1-2.1,2.1-5.6,0-7.7l-16.3-16.3
		c-1.9-1.9-4.9-2.1-7.1-0.6l-1.3-1.3L294.5,147.3z M296.9,152.4l-0.3-0.3c0.9-0.4,2-0.2,2.7,0.5l16.3,16.3c0.9,0.9,0.9,2.5,0,3.4
		l-5.9,5.9c-0.9,0.9-2.5,0.9-3.4,0L290,161.9c-0.7-0.7-0.9-1.8-0.5-2.7l0.3,0.3c1.4,1.4,3.6,1.4,5,0l2.1-2.1
		C298.3,156,298.3,153.8,296.9,152.4z M274.9,147.3c-1.7,1.7-4.5,1.7-6.2,0L248.4,127c-1.7-1.7-1.7-4.5,0-6.2l9.8-9.8
		c1.7-1.7,4.5-1.7,6.2,0l20.2,20.2c1.7,1.7,1.7,4.5,0,6.2l-1.3,1.3l-1.3-1.3c1.5-2.1,1.4-5.1-0.6-7.1l-16.3-16.3
		c-2.1-2.1-5.6-2.1-7.7,0l-5.9,5.9c-2.1,2.1-2.1,5.6,0,7.7l16.3,16.3c1.9,1.9,4.9,2.1,7.1,0.6l1.3,1.3L274.9,147.3z M272.5,142.2
		l0.3,0.3c-0.9,0.4-2,0.2-2.7-0.5l-16.3-16.3c-0.9-0.9-0.9-2.5,0-3.4l5.9-5.9c0.9-0.9,2.5-0.9,3.4,0l16.3,16.3
		c0.7,0.7,0.9,1.8,0.5,2.7l-0.3-0.3c-1.4-1.4-3.6-1.4-5,0l-2.1,2.1C271.1,138.6,271.1,140.8,272.5,142.2z M279.5,144.8l-3.4-3.4
		l-1.5-1.5c-0.2-0.2-0.2-0.5,0-0.6l2.1-2.1c0.2-0.2,0.5-0.2,0.6,0l1.5,1.5c0,0,0,0,0,0l3.4,3.4l7.7,7.7c0,0,0,0,0,0l3.4,3.4
		c0,0,0,0,0,0l1.5,1.5c0.2,0.2,0.2,0.5,0,0.6l-2.1,2.1c-0.2,0.2-0.5,0.2-0.6,0l-1.5-1.5l-3.4-3.4L279.5,144.8z"/>
	<path class="st2" d="M147.6,127.9c0,0.8,0.7,1.5,1.5,1.6c0.4,0,0.8-0.2,1.1-0.4c0.3-0.3,0.4-0.6,0.4-1c0-0.1,0-0.3,0-0.5
		c0-0.2,0.1-0.3,0.1-0.4c0.1-0.8-0.5-1.6-1.3-1.7c-0.8-0.1-1.6,0.5-1.7,1.3c0,0.1,0,0.2,0,0.3c0,0.1,0,0.2,0,0.3c0,0.1,0,0.2,0,0.3
		C147.6,127.7,147.6,127.8,147.6,127.9z"/>
	<path class="st2" d="M150.4,132.1c0-0.8-0.7-1.5-1.6-1.5c-0.8,0-1.5,0.7-1.5,1.6c0.2,9.1,3.5,17.8,9.4,24.3
		c0.6,0.6,1.5,0.7,2.2,0.1c0,0,0,0,0.1-0.1c0.6-0.6,0.6-1.5,0.1-2.1C153.7,148.5,150.6,140.6,150.4,132.1z"/>
	<path class="st2" d="M177.3,265.2c-3.6,7.4-2.4,16.6,3.8,22.8l3.7,3.7c0.6,0.6,1.6,0.6,2.2,0l26-26c0.6-0.6,0.6-1.6,0-2.2l-3.7-3.7
		c-6.2-6.2-15.4-7.4-22.8-3.8c0.8-3.7-0.3-7.7-3.2-10.6c-4.6-4.6-12-4.6-16.6,0s-4.6,12,0,16.6C169.5,264.9,173.6,266,177.3,265.2z
		 M207,262l2.6,2.6l-23.8,23.8l-2.6-2.6c-6.6-6.6-6.6-17.2,0-23.8S200.5,255.5,207,262z M168.8,247.6c3.4-3.4,8.9-3.4,12.3,0
		c3.4,3.4,3.4,8.9,0,12.3c-3.4,3.4-8.9,3.4-12.3,0S165.4,251,168.8,247.6z"/>
	<path class="st2" d="M16.6,196c-7.8,7.8-7.8,20.5,0,28.3c7.8,7.8,20.5,7.8,28.3,0c7.8-7.8,7.8-20.5,0-28.3
		C37.1,188.2,24.4,188.2,16.6,196z M42.1,221.5c-6.3,6.3-16.5,6.3-22.7,0c-6.3-6.3-6.3-16.5,0-22.7c6.3-6.3,16.5-6.3,22.7,0
		C48.3,205,48.3,215.2,42.1,221.5z"/>
	<path class="st2" d="M41.6,343.6l9.9,9.9c5.2,5.2,13.7,5.2,19,0c5.2-5.2,5.2-13.7,0-19l-9.9-9.9l33.1-33.1c5.9-5.9,5.9-15.4,0-21.3
		L70,246.6c-1.1-5.6-9.7-46.4-19.6-56.3c-10.9-10.9-28.6-10.9-39.5,0C0,201.2,0,218.9,10.9,229.8c9.9,9.9,50.7,18.5,56.3,19.6
		l23.7,23.7c4.3,4.3,4.3,11.4,0,15.7l-33.1,33.1l-18-18c-0.8-0.8-2-0.8-2.8,0l-2.3,2.3l-11.9-11.9c6.9-12.1,5-27.6-5-37.6
		c-5-5-11.2-7.9-17.7-8.8v4c5.5,0.9,10.7,3.4,15,7.6c9,9,10.6,23.3,3.6,34.1c-1.5,2.4-3.6,4.7-5.9,6.5c-0.8,0.6-1.5,1.2-2.3,1.7
		c-3.2,2.1-6.8,3.4-10.4,4v3.9c3.9-0.5,7.7-1.8,11.2-3.8l11.9,11.9l-2.3,2.3c-0.8,0.8-0.8,2,0,2.8l18,18L6.7,373
		c-1.9,1.9-4.3,2.9-6.7,3.2v3.9c3.5-0.3,6.8-1.7,9.5-4.3L41.6,343.6z M13.7,227c-9.4-9.4-9.4-24.6,0-33.9s24.6-9.4,33.9,0
		c8.2,8.2,15.9,41.8,18,52C55.5,242.9,21.8,235.2,13.7,227z M14.5,303.6c0.1-0.1,0.2-0.1,0.3-0.2c0.4-0.3,0.7-0.6,1.1-0.9
		c0.1-0.1,0.3-0.2,0.4-0.4c0.5-0.4,1-0.9,1.4-1.3c0.5-0.5,0.9-1,1.3-1.4c0.1-0.1,0.2-0.3,0.4-0.4c0.3-0.4,0.6-0.7,0.9-1.1
		c0.1-0.1,0.1-0.2,0.2-0.3L31.9,309l-3,3l-3,3L14.5,303.6z M24.9,321.5l2.3-2.3c0,0,0,0,0,0l4.4-4.4l6.7-6.7l29.4,29.4
		c3.7,3.7,3.7,9.7,0,13.4c-3.7,3.7-9.7,3.7-13.4,0L24.9,321.5z"/>
	<path class="st2" d="M12.8,295.9c1.3-1.3,2.3-2.6,3.2-4c6.1-9.5,4.8-22.2-3.2-30.2c-3.6-3.6-8.1-5.8-12.8-6.7v2.7
		c4,0.8,7.8,2.8,10.9,5.9c7.1,7.1,8.3,18.5,2.9,26.9c-1.6,2.5-3.9,4.9-6.5,6.5c-2.3,1.5-4.8,2.4-7.3,3v2.7c3-0.5,6-1.7,8.7-3.4
		C10.1,298.2,11.5,297.1,12.8,295.9z"/>
	<path class="st2" d="M326.3,3.9c1.2-1.2,2.1-2.5,2.7-3.9h-4.5c-0.3,0.4-0.6,0.8-1,1.2c-3.8,3.8-10.1,3.8-13.9,0
		c-0.4-0.4-0.7-0.8-1-1.2h-4.5c0.7,1.4,1.6,2.8,2.7,3.9C312.2,9.3,320.9,9.3,326.3,3.9z"/>
	<path class="st2" d="M330.4,10.8l11.4,11.4c5.9,5.9,15.4,5.9,21.3,0L385.2,0h-5.5l-19.4,19.4c-4.3,4.3-11.4,4.3-15.7,0L333.1,8
		c2-2.4,3.4-5.1,4.2-8h-4.1c-0.8,2.4-2.2,4.8-4.2,6.7c-6.9,6.9-18.1,6.9-25,0c-2-2-3.4-4.3-4.2-6.7h-4.1c1,3.5,2.8,6.8,5.5,9.5
		C309.2,17.4,321.9,17.9,330.4,10.8z"/>
	<path class="st2" d="M421.1,2.2c-5.2-1.1-10.5-1.8-15.9-2.1C409.5,4.4,416,5.1,421.1,2.2z"/>
	<path class="st2" d="M368.5,144.9c0.2-0.8-0.3-1.6-1.1-1.9c-0.8-0.2-1.6,0.3-1.8,1.1c-1.6,6-1.2,12.6,1.2,18.3
		c0.3,0.8,1.2,1.2,2,0.8c0.2-0.1,0.4-0.2,0.5-0.3c0.4-0.4,0.6-1.1,0.3-1.6C367.5,156.2,367.1,150.3,368.5,144.9z"/>
	<path class="st2" d="M282.4,394.7l-0.1-0.1l0.1-2.9c0.1-1.9,0.1-3.3,0-4.2c-0.1-0.9-0.3-1.7-0.6-2.3c-0.3-0.7-0.7-1.3-1.2-1.8
		c-0.6-0.6-1.3-1-2.1-1.2c-0.8-0.2-1.6-0.1-2.4,0.2c-0.8,0.3-1.6,0.8-2.3,1.5c-0.6,0.6-1,1.1-1.3,1.7c-0.3,0.6-0.6,1.1-0.8,1.7
		c-0.2,0.6-0.3,1.4-0.4,2.5l2.9,0.2c0.1-0.8,0.2-1.6,0.4-2.2c0.2-0.6,0.6-1.2,1-1.6c0.4-0.4,0.9-0.7,1.4-0.7c0.5,0,1,0.2,1.4,0.7
		c0.3,0.3,0.6,0.7,0.7,1.1c0.2,0.4,0.3,0.9,0.4,1.5c0.1,0.6,0.1,1.8,0.1,3.5l0,5.9l1.7,1.7l8.1-8.1l-2.1-2.1L282.4,394.7z"/>
	<path class="st2" d="M296.7,379.8l-1.9-1.9l-1.4,1.4l-7.3-7.3l-2.3,2.3l2.4,12.6l1.7,1.7l5-5l2.4,2.4l2.4-2.4l-2.4-2.4L296.7,379.8
		z M288.2,384.4l-1.1-5.3c-0.1-0.7-0.3-1.3-0.6-2l0.1-0.1c0.1,0.1,0.4,0.5,1,1.2c0.6,0.7,1.1,1.1,1.4,1.5l2,2L288.2,384.4z"/>
	<polygon class="st2" points="292.2,365.8 299.5,381.8 301.7,379.6 294.4,363.6 	"/>
	<path class="st2" d="M299.2,358.9l-0.8,6.7l2.7,0.3l0.3-2.4c0-0.3,0-0.8,0-1.7l1.2,1.2l1.1,1.1l6.7,6.7l2.5-2.5l-11.6-11.6
		L299.2,358.9z"/>
	<path class="st2" d="M355.6,251.1c2.6-2.6,2.6-6.9,0-9.5c-2.6-2.6-6.9-2.6-9.5,0c-2.6,2.6-2.6,6.9,0,9.5
		C348.7,253.7,352.9,253.7,355.6,251.1z M348.2,243.8c1.4-1.4,3.8-1.4,5.2,0s1.4,3.8,0,5.2s-3.8,1.4-5.2,0S346.8,245.2,348.2,243.8z
		"/>
	<path class="st2" d="M338,268.7c2.6-2.6,2.6-6.9,0-9.5c-2.6-2.6-6.9-2.6-9.5,0c-2.6,2.6-2.6,6.9,0,9.5
		C331.1,271.3,335.3,271.3,338,268.7z M330.6,261.4c1.4-1.4,3.8-1.4,5.2,0c1.4,1.4,1.4,3.8,0,5.2s-3.8,1.4-5.2,0
		C329.2,265.1,329.2,262.8,330.6,261.4z"/>
	<path class="st2" d="M320.4,276.8c-2.6-2.6-6.9-2.6-9.5,0c-2.6,2.6-2.6,6.9,0,9.5c2.6,2.6,6.9,2.6,9.5,0
		C323,283.7,323,279.4,320.4,276.8z M318.2,284.2c-1.4,1.4-3.8,1.4-5.2,0c-1.4-1.4-1.4-3.8,0-5.2c1.4-1.4,3.8-1.4,5.2,0
		C319.6,280.4,319.6,282.7,318.2,284.2z"/>
	<path class="st2" d="M319.5,350.6c-6.9-6.9-18.1-6.9-25,0l-14.6,14.6l-16.8-16.8c-3.3-3.3-3.3-8.8,0-12.2l35.9-35.9l15.4,15.4
		c2.6,2.6,6.7,2.6,9.3,0l13.9-13.9l7.5,18c0.3,0.6,0.9,1,1.6,0.9c0.3-0.1,0.6-0.2,0.8-0.4c0.2-0.2,0.4-0.6,0.4-1l2.5-30.4l7.5-7.5
		l5,5c2.3,2.3,6,2.3,8.3,0l29.9-29.9l26.2-2.1c0.4,0,0.7-0.2,1-0.4c0.2-0.2,0.4-0.5,0.4-0.8c0.1-0.7-0.3-1.4-0.9-1.6l-15.3-6.3
		l11.8-11.8c2.3-2.3,2.3-6,0-8.3l-13.2-13.2l10.8-10.8c4.5-4.5,4.5-11.9,0-16.4l-27.3-27.3l18.5-18.5c0.6-0.6,0.6-1.6,0-2.1
		l-5.5-5.5c-9.4-9.4-23.8-11-34.9-4.8c1.8-5.8,0.4-12.3-4.2-16.9c-6.6-6.6-17.3-6.6-23.9,0s-6.6,17.3,0,23.9
		c4.6,4.6,11.1,6,16.9,4.2c-6.3,11.1-4.7,25.5,4.8,34.9l5.5,5.5c0.6,0.6,1.6,0.6,2.1,0l18.5-18.5l27.3,27.3c3.3,3.3,3.3,8.8,0,12.2
		L409,209.8l-13.2-13.2c-2.3-2.3-6-2.3-8.3,0L362,222.1l-9.9-9.9c-2.6-2.6-6.7-2.6-9.3,0l-61.4,61.4c-2.6,2.6-2.6,6.7,0,9.3
		l15.4,15.4L261,334.1c-4.5,4.5-4.5,11.9,0,16.4l16.8,16.8l-14.6,14.6c-6.9,6.9-6.9,18.1,0,25c6.9,6.9,18.1,6.9,25,0l31.3-31.3
		C326.4,368.7,326.4,357.5,319.5,350.6z M346.8,131.3c-5.4-5.4-5.4-14.2,0-19.6s14.2-5.4,19.6,0s5.4,14.2,0,19.6
		S352.2,136.7,346.8,131.3z M372.9,174.8l-4.4-4.4c-10.2-10.2-10.2-26.8,0-37s26.8-10.2,37,0l4.4,4.4L372.9,174.8z M389.6,198.7
		c1.1-1.1,2.9-1.1,4,0l14.2,14.2l0,0l0,0l14.2,14.2c1.1,1.1,1.1,2.9,0,4l-13.4,13.4c-0.4,0.4-0.5,0.9-0.4,1.4
		c0.1,0.5,0.4,0.9,0.9,1.1l11.6,4.8l-20.5,1.7c-0.4,0-0.7,0.2-1,0.4L369,284.3c-1.1,1.1-2.9,1.1-4,0l-5-5l25-25
		c2.6-2.6,2.6-6.7,0-9.3l-20.9-20.9L389.6,198.7z M283.6,280.7c-1.4-1.4-1.4-3.6,0-5l61.4-61.4c1.4-1.4,3.6-1.4,5,0l11,11l0,0
		l21.9,21.9c1.4,1.4,1.4,3.6,0,5l-26.1,26.1l-9,9c-0.3,0.3-0.4,0.6-0.4,1l-2,24.6l-5.9-14.3c-0.2-0.5-0.6-0.8-1.1-0.9
		c-0.5-0.1-1,0.1-1.4,0.4l-15.5,15.5c-1.4,1.4-3.6,1.4-5,0L283.6,280.7z M286.1,404.8c-5.7,5.7-15,5.7-20.8,0
		c-5.7-5.7-5.7-15,0-20.8l15.6-15.6l0,0l0,0l15.6-15.6c5.7-5.7,15-5.7,20.8,0c5.7,5.7,5.7,15,0,20.8L286.1,404.8z"/>
	<path class="st2" d="M398.8,230.6c2.3-2.3,2.3-6.1,0-8.5s-6.1-2.3-8.5,0s-2.3,6.1,0,8.5S396.4,232.9,398.8,230.6z M392.4,224.2
		c1.2-1.2,3-1.2,4.2,0c1.2,1.2,1.2,3,0,4.2c-1.2,1.2-3,1.2-4.2,0C391.3,227.3,391.3,225.4,392.4,224.2z"/>
	<path class="st2" d="M83.2,182.1h-5.3v-5.3c0-0.7-0.6-1.3-1.3-1.3s-1.3,0.6-1.3,1.3v5.3h-5.3c-0.7,0-1.3,0.6-1.3,1.3
		s0.6,1.3,1.3,1.3h5.3v5.3c0,0.7,0.6,1.3,1.3,1.3c0.4,0,0.7-0.2,1-0.4s0.4-0.6,0.4-1v-5.3h5.3c0.4,0,0.7-0.2,1-0.4s0.4-0.6,0.4-1
		C84.5,182.7,83.9,182.1,83.2,182.1z"/>
	<path class="st2" d="M368,55.4h5.3v5.3c0,0.7,0.6,1.3,1.3,1.3c0.4,0,0.7-0.2,1-0.4c0.2-0.2,0.4-0.6,0.4-1v-5.3h5.3
		c0.4,0,0.7-0.2,1-0.4s0.4-0.6,0.4-1c0-0.7-0.6-1.3-1.3-1.3H376v-5.3c0-0.7-0.6-1.3-1.3-1.3s-1.3,0.6-1.3,1.3v5.3H368
		c-0.7,0-1.3,0.6-1.3,1.3S367.2,55.4,368,55.4z"/>
	<path class="st2" d="M263.3,287.7c0.2-0.2,0.4-0.6,0.4-1c0-0.7-0.6-1.3-1.3-1.3H257v-5.3c0-0.7-0.6-1.3-1.3-1.3s-1.3,0.6-1.3,1.3
		v5.3H249c-0.7,0-1.3,0.6-1.3,1.3s0.6,1.3,1.3,1.3h5.3v5.3c0,0.7,0.6,1.3,1.3,1.3c0.4,0,0.7-0.2,1-0.4s0.4-0.6,0.4-1v-5.3h5.3
		C262.7,288.1,263,288,263.3,287.7z"/>
	<path class="st2" d="M288.1,90.8c0.1,0.4,0.4,0.7,0.8,0.8L299,94c0.4,0.1,0.7,0,1-0.3s0.4-0.6,0.3-1l-2.5-10.1
		c-0.1-0.4-0.4-0.7-0.8-0.8l-10.1-2.5c-0.4-0.1-0.7,0-1,0.3s-0.4,0.6-0.3,1L288.1,90.8z M295.9,83.8l1.9,7.8l-7.8-1.9l-1.9-7.8
		L295.9,83.8z"/>
	<path class="st2" d="M101.2,244.5c0.1,0.4,0.4,0.7,0.8,0.8l10.1,2.5c0.4,0.1,0.7,0,1-0.3s0.4-0.6,0.3-1l-2.5-10.1
		c-0.1-0.4-0.4-0.7-0.8-0.8l-10.1-2.5c-0.4-0.1-0.7,0-1,0.3s-0.4,0.6-0.3,1L101.2,244.5z M108.9,237.5l1.9,7.8l-7.8-1.9l-1.9-7.8
		L108.9,237.5z"/>
	<path class="st2" d="M457.7,236.7c0.1,0.4,0.4,0.7,0.8,0.8l10.1,2.5c0.4,0.1,0.7,0,1-0.3s0.4-0.6,0.3-1l-2.5-10.1
		c-0.1-0.4-0.4-0.7-0.8-0.8l-10.1-2.5c-0.4-0.1-0.7,0-1,0.3s-0.4,0.6-0.3,1L457.7,236.7z M465.5,229.7l1.9,7.8l-7.8-1.9l-1.9-7.8
		L465.5,229.7z"/>
	<path class="st2" d="M227.7,398.2c-0.1-0.4-0.4-0.7-0.8-0.8l-10.1-2.5c-0.4-0.1-0.7,0-1,0.3s-0.4,0.6-0.3,1l2.5,10.1
		c0.1,0.4,0.4,0.7,0.8,0.8l10.1,2.5c0.4,0.1,0.7,0,1-0.3s0.4-0.6,0.3-1L227.7,398.2z M219.9,405.2l-1.9-7.8l7.8,1.9l1.9,7.8
		L219.9,405.2z"/>
	<path class="st2" d="M180.6,59.3c3-3,3-7.9,0-11c-3-3-7.9-3-11,0c-3,3-3,7.9,0,11C172.6,62.3,177.5,62.3,180.6,59.3z M171.5,50.2
		c2-2,5.2-2,7.1,0c2,2,2,5.2,0,7.1c-2,2-5.2,2-7.1,0C169.5,55.4,169.5,52.2,171.5,50.2z"/>
	<path class="st2" d="M485.8,285.3c3-3,3-7.9,0-11c-3-3-7.9-3-11,0c-3,3-3,7.9,0,11C477.8,288.3,482.7,288.3,485.8,285.3z
		 M476.7,276.3c2-2,5.2-2,7.1,0c2,2,2,5.2,0,7.1c-2,2-5.2,2-7.1,0C474.7,281.4,474.7,278.2,476.7,276.3z"/>
	<path class="st2" d="M416.2,96.6c3-3,3-7.9,0-11c-3-3-7.9-3-11,0c-3,3-3,7.9,0,11C408.3,99.7,413.2,99.7,416.2,96.6z M407.2,87.6
		c2-2,5.2-2,7.1,0c2,2,2,5.2,0,7.1c-2,2-5.2,2-7.1,0C405.2,92.8,405.2,89.6,407.2,87.6z"/>
	<path class="st2" d="M9.8,171.7c0.3-0.3,0.4-0.6,0.4-1c0-0.7-0.6-1.3-1.4-1.3L0,169.7v2.7l8.9-0.2C9.2,172.1,9.6,172,9.8,171.7z"/>
	<path class="st2" d="M286.5,209.8c-0.7,0-1.3,0.6-1.3,1.3l-0.4,14.4l-14.4,0.4c-0.7,0-1.3,0.6-1.3,1.3l-0.4,14.4l-14.4,0.4
		c-0.7,0-1.3,0.6-1.3,1.4c0,0.7,0.6,1.3,1.4,1.3l15.7-0.4c0.7,0,1.3-0.6,1.3-1.3l0.4-14.4l14.4-0.4c0.7,0,1.3-0.6,1.3-1.3l0.4-14.4
		l14.4-0.4c0.4,0,0.7-0.2,0.9-0.4c0.3-0.3,0.4-0.6,0.4-1c0-0.7-0.6-1.3-1.4-1.3L286.5,209.8z"/>
	<path class="st2" d="M306,50.8l14.4,0.4l0.4,14.4c0,0.7,0.6,1.3,1.3,1.3l14.4,0.4l0.4,14.4c0,0.7,0.6,1.3,1.4,1.3
		c0.4,0,0.7-0.2,0.9-0.4c0.3-0.3,0.4-0.6,0.4-1l-0.4-15.7c0-0.7-0.6-1.3-1.3-1.3l-14.4-0.4l-0.4-14.4c0-0.7-0.6-1.3-1.3-1.3
		l-14.4-0.4L307,33.8c0-0.7-0.6-1.3-1.4-1.3c-0.7,0-1.3,0.6-1.3,1.4l0.4,15.7C304.7,50.2,305.3,50.8,306,50.8z"/>
	<path class="st2" d="M363.8,426.6L330,460.4c-0.8,0.8-1.9,1.3-3.1,1.3c-1.2,0-2.2-0.5-3-1.3c-1.6-1.7-1.4-4.4,0.3-6.1l12.8-12.8
		c2.7-2.7,2.7-7.1,0-9.9s-7.1-2.7-9.9,0l-4.3,4.3c-1.1,1.1-2.5,1.7-4.1,1.6c-1.5,0-2.9-0.7-4-1.9c-1.9-2.2-1.7-5.6,0.4-7.7l25-25
		c0.5-0.5,0.5-1.4,0-1.9c-0.5-0.5-1.4-0.5-1.9,0l-25,25c-3.1,3.1-3.4,8.1-0.5,11.4c1.5,1.7,3.6,2.7,5.9,2.8c2.3,0.1,4.5-0.8,6.1-2.4
		l4.3-4.3c1.7-1.7,4.4-1.7,6,0s1.7,4.4,0,6l-12.8,12.8c-2.7,2.7-2.9,7.2-0.3,9.9c1.3,1.4,3.1,2.2,5,2.2c1.9,0,3.7-0.7,5-2l33.8-33.8
		c0.5-0.5,0.5-1.4,0-1.9C365.2,426,364.3,426,363.8,426.6z"/>
	<path class="st2" d="M143.4,324.5l-33.8,33.8c-0.8,0.8-1.9,1.3-3.1,1.3c-1.2,0-2.2-0.5-3-1.3c-1.6-1.7-1.4-4.4,0.3-6.1l12.8-12.8
		c2.7-2.7,2.7-7.1,0-9.9s-7.1-2.7-9.8,0l-4.3,4.3c-1.1,1.1-2.5,1.7-4.1,1.6c-1.5,0-2.9-0.7-4-1.9c-1.9-2.2-1.7-5.6,0.4-7.7l25-25
		c0.5-0.5,0.5-1.4,0-1.9c-0.5-0.5-1.4-0.5-1.9,0l-25,25c-3.1,3.1-3.4,8.1-0.5,11.4c1.5,1.7,3.6,2.7,5.9,2.8c2.3,0.1,4.5-0.8,6.1-2.4
		l4.3-4.3c1.7-1.7,4.4-1.7,6,0c1.7,1.7,1.7,4.4,0,6l-12.8,12.8c-2.7,2.7-2.9,7.2-0.3,9.9c1.3,1.4,3.1,2.2,5,2.2c1.9,0,3.7-0.7,5-2
		l33.8-33.8c0.5-0.5,0.5-1.4,0-1.9C144.8,324,143.9,324,143.4,324.5z"/>
	<path class="st2" d="M232.3,52.9c2.3,0.1,4.5-0.8,6.1-2.4l4.3-4.3c1.7-1.7,4.4-1.7,6,0s1.7,4.4,0,6L236,65
		c-2.7,2.7-2.9,7.2-0.3,9.9c1.3,1.4,3.1,2.2,5,2.2c1.9,0,3.7-0.7,5-2l33.8-33.8c0.5-0.5,0.5-1.4,0-1.9c-0.5-0.5-1.4-0.5-1.9,0
		l-33.8,33.8c-0.8,0.8-1.9,1.3-3.1,1.2c-1.2,0-2.2-0.5-3-1.3c-1.6-1.7-1.4-4.4,0.3-6.1l12.8-12.8c2.7-2.7,2.7-7.1,0-9.8
		s-7.1-2.7-9.9,0l-4.3,4.3c-1.1,1.1-2.5,1.7-4.1,1.6c-1.5,0-2.9-0.7-4-1.9c-1.9-2.2-1.7-5.6,0.4-7.7l25-25c0.5-0.5,0.5-1.4,0-1.9
		c-0.5-0.5-1.4-0.5-1.9,0l-25,25c-3.1,3.1-3.4,8.1-0.5,11.4C227.9,51.8,230,52.8,232.3,52.9z"/>
	<path class="st2" d="M390.7,326.3c2.6,0.7,5.8,1.5,8.2-0.9c2.4-2.4,1.6-5.6,0.9-8.2c-0.7-2.7-1-4.4,0.2-5.6s2.9-0.9,5.6-0.2
		c2.6,0.7,5.8,1.5,8.2-0.9c0.5-0.5,0.5-1.4,0-1.9c-0.5-0.5-1.4-0.5-1.9,0c-1.2,1.2-2.9,0.9-5.6,0.2c-2.6-0.7-5.8-1.5-8.2,0.9
		s-1.6,5.6-0.9,8.2c0.7,2.7,1,4.4-0.2,5.6c-1.2,1.2-2.9,0.9-5.6,0.2c-2.6-0.7-5.8-1.5-8.2,0.9c-2.4,2.4-1.5,5.6-0.9,8.2
		c0.7,2.7,1,4.4-0.2,5.6c-1.2,1.2-2.9,0.9-5.6,0.2c-2.6-0.7-5.8-1.5-8.2,0.9s-1.5,5.6-0.9,8.2c0.7,2.7,1,4.4-0.2,5.6
		c-1.2,1.2-2.9,0.9-5.6,0.2c-2.6-0.7-5.8-1.5-8.2,0.9c-0.5,0.5-0.5,1.4,0,1.9c0.5,0.5,1.4,0.5,1.9,0c1.2-1.2,2.9-0.9,5.6-0.2
		c2.6,0.7,5.8,1.5,8.2-0.9c2.4-2.4,1.5-5.6,0.9-8.2c-0.7-2.7-1-4.4,0.2-5.6c1.2-1.2,2.9-0.9,5.6-0.2c2.6,0.7,5.8,1.5,8.2-0.9
		c2.4-2.4,1.5-5.6,0.9-8.2c-0.7-2.7-1-4.4,0.2-5.6C386.4,325.3,388.1,325.6,390.7,326.3z"/>
	<path class="st2" d="M236.4,322.6c-1.2,1.2-2.9,0.9-5.6,0.2c-2.6-0.7-5.8-1.5-8.2,0.9c-2.4,2.4-1.6,5.6-0.9,8.2
		c0.7,2.7,1,4.4-0.2,5.6c-1.2,1.2-2.9,0.9-5.6,0.2c-2.6-0.7-5.8-1.5-8.2,0.9c-2.4,2.4-1.5,5.6-0.9,8.2c0.7,2.7,1,4.4-0.2,5.6
		c-1.2,1.2-2.9,0.9-5.6,0.2c-2.6-0.7-5.8-1.5-8.2,0.9c-2.4,2.4-1.5,5.6-0.9,8.2c0.7,2.7,1,4.4-0.2,5.6c-1.2,1.2-2.9,0.9-5.6,0.2
		c-2.6-0.7-5.8-1.5-8.2,0.9c-0.5,0.5-0.5,1.4,0,1.9c0.5,0.5,1.4,0.5,1.9,0c1.2-1.2,2.9-0.9,5.6-0.2c2.6,0.7,5.8,1.5,8.2-0.9
		s1.5-5.6,0.9-8.2c-0.7-2.7-1-4.4,0.2-5.6c1.2-1.2,2.9-0.9,5.6-0.2c2.6,0.7,5.8,1.5,8.2-0.9c2.4-2.4,1.5-5.6,0.9-8.2
		c-0.7-2.7-1-4.4,0.2-5.6c1.2-1.2,2.9-0.9,5.6-0.2c2.6,0.7,5.8,1.5,8.2-0.9c2.4-2.4,1.6-5.6,0.9-8.2c-0.7-2.7-1-4.4,0.2-5.6
		c1.2-1.2,2.9-0.9,5.6-0.2c2.6,0.7,5.8,1.5,8.2-0.9c0.5-0.5,0.5-1.4,0-1.9C237.7,322.1,236.9,322.1,236.4,322.6z"/>
</g>
<path class="st3" d="M369.8,128.1H264.5v269.5H235V128.1H130.2v-25.7h239.5V128.1z"/>
</svg>
